<?xml version="1.0" standalone="no"?>
<!DOCTYPE svg PUBLIC "-//W3C//DTD SVG 20010904//EN"
 "http://www.w3.org/TR/2001/REC-SVG-20010904/DTD/svg10.dtd">
<svg version="1.0" xmlns="http://www.w3.org/2000/svg"
 width="300.000000pt" height="99.000000pt" viewBox="0 0 300.000000 99.000000"
 preserveAspectRatio="xMidYMid meet">
<metadata>
Created by potrace 1.10, written by Peter Selinger 2001-2011
</metadata>
<g transform="translate(0.000000,99.000000) scale(0.100000,-0.100000)"
fill="#1717b1" stroke="none">
<path d="M269 980 c-124 -21 -238 -136 -258 -259 -7 -42 -6 -49 5 -40 8 6 14
21 14 34 0 86 165 252 226 228 12 -4 15 -3 10 5 -4 8 0 12 11 12 10 0 27 7 37
15 11 8 16 14 10 14 -5 -1 -30 -5 -55 -9z"/>
<path d="M360 975 c7 -8 21 -15 31 -15 37 0 91 -32 96 -57 3 -15 -33 -36 -47
-28 -5 3 -40 9 -77 14 -61 8 -73 6 -119 -15 -93 -44 -141 -114 -146 -215 -4
-90 60 -188 147 -225 42 -17 145 -20 174 -5 32 18 72 6 68 -19 -4 -25 -18 -39
-43 -44 -10 -3 -40 -9 -66 -15 -26 -6 -53 -9 -60 -6 -7 2 -28 6 -46 9 -49 7
-114 42 -154 83 -40 41 -88 126 -88 154 0 23 -10 49 -20 49 -14 0 9 -102 34
-143 38 -65 104 -125 166 -149 141 -56 345 -1 300 81 -19 36 -43 42 -95 25
-140 -48 -283 41 -293 185 -5 64 10 108 54 160 55 65 166 90 248 56 27 -11 42
-13 56 -5 27 14 42 47 35 71 -8 23 -70 54 -128 62 -33 5 -37 4 -27 -8z"/>
<path d="M1087 965 c-21 -21 -22 -58 -1 -76 9 -7 43 -16 75 -20 112 -13 189
-91 197 -199 5 -70 -10 -120 -51 -166 -107 -122 -297 -97 -374 49 -18 34 -22
114 -9 183 8 38 6 44 -17 59 -59 38 -100 -20 -101 -145 0 -94 35 -180 99 -239
74 -68 139 -93 241 -92 124 1 239 73 294 186 21 43 25 64 25 145 0 84 -3 101
-27 147 -56 106 -155 173 -269 181 -52 3 -68 1 -82 -13z m118 -15 c3 -5 15
-10 25 -10 29 0 91 -38 132 -81 41 -43 71 -93 61 -103 -4 -3 -2 -6 4 -6 12 0
15 -15 16 -97 1 -77 -3 -94 -32 -152 -30 -58 -108 -131 -141 -131 -8 0 -28 -7
-44 -15 -32 -17 -151 -21 -161 -5 -4 6 -12 10 -18 9 -39 -6 -124 53 -165 114
-39 59 -52 103 -52 179 0 80 21 129 53 124 24 -3 34 -30 20 -49 -16 -21 -15
-105 1 -155 28 -84 113 -153 204 -168 59 -9 142 19 197 66 25 22 46 43 47 47
1 4 8 24 16 43 21 49 19 137 -3 184 -10 21 -37 58 -59 81 -41 43 -70 56 -165
72 -47 9 -63 35 -33 53 22 12 89 13 97 0z"/>
<path d="M1750 960 c-20 -20 -22 -30 -18 -122 2 -85 6 -102 22 -114 27 -19 52
-18 76 6 16 16 20 33 20 80 l0 60 83 0 c110 0 153 -14 203 -64 85 -84 86 -221
3 -310 -50 -56 -89 -66 -243 -66 -113 0 -128 -2 -146 -20 -25 -25 -25 -41 -1
-71 17 -21 29 -24 105 -28 197 -8 318 31 388 124 53 70 73 134 71 227 -2 126
-63 231 -167 286 -48 25 -60 27 -213 30 -155 4 -162 3 -183 -18z m345 -15 c17
-4 32 -11 35 -14 3 -3 19 -13 35 -22 31 -17 118 -136 109 -150 -2 -4 0 -10 6
-14 11 -7 14 -145 4 -182 -4 -13 -11 -20 -17 -16 -6 4 -7 1 -2 -6 8 -14 -10
-55 -37 -85 -10 -11 -18 -23 -18 -27 0 -13 -60 -51 -110 -69 -38 -14 -82 -18
-190 -19 -91 -1 -140 2 -141 9 -1 5 -2 16 -3 23 -5 31 16 37 144 37 71 0 142
5 161 12 83 28 138 102 146 198 5 55 -10 148 -25 160 -4 3 -12 14 -18 25 -15
27 -68 63 -113 75 -51 14 -204 13 -219 -2 -7 -7 -12 -30 -12 -52 0 -64 -9 -86
-35 -86 -30 0 -42 32 -39 111 3 112 1 111 167 106 78 -2 156 -8 172 -12z"/>
<path d="M2553 954 c-15 -24 -15 -29 -2 -53 l15 -26 199 -3 c194 -3 201 -2
218 19 22 28 22 44 -3 69 -19 19 -33 20 -215 20 l-195 0 -17 -26z m398 -4 c10
-6 19 -19 19 -30 0 -26 -32 -30 -224 -27 -136 2 -160 4 -169 19 -8 12 -7 21 2
32 11 13 40 16 183 16 98 0 178 -4 189 -10z"/>
<path d="M2574 702 c-20 -13 -35 -52 -29 -72 14 -45 83 -50 106 -9 15 29 4 64
-26 77 -30 14 -36 14 -51 4z m60 -47 c6 -18 -18 -38 -41 -33 -21 4 -30 37 -13
48 16 10 47 1 54 -15z"/>
<path d="M2730 690 c-11 -11 -20 -29 -20 -40 0 -11 9 -29 20 -40 17 -17 33
-20 123 -20 109 0 130 7 142 47 4 17 -1 29 -19 48 -23 23 -32 25 -126 25 -87
0 -103 -3 -120 -20z m178 -13 c8 12 72 -12 72 -27 0 -25 -47 -39 -130 -38 -89
0 -110 8 -110 39 0 21 32 33 70 26 14 -2 34 -1 45 3 11 4 26 3 33 -3 9 -7 16
-7 20 0z"/>
<path d="M2554 405 c-14 -21 -15 -31 -6 -51 19 -39 53 -45 240 -42 169 3 174
4 193 27 21 26 18 58 -9 79 -11 9 -70 12 -209 12 l-193 0 -16 -25z m412 -16
c13 -15 14 -22 5 -33 -19 -23 -379 -18 -394 5 -7 12 -6 21 4 32 12 14 41 16
191 16 160 -1 178 -3 194 -20z"/>
<path d="M140 84 c0 -46 4 -84 9 -84 5 0 11 5 13 11 3 9 10 9 26 0 30 -16 72
4 91 43 12 25 11 33 -3 62 -15 34 -24 38 -98 48 l-38 5 0 -85z m98 34 c30 -30
2 -88 -44 -88 -22 0 -24 4 -24 50 0 48 1 50 28 50 15 0 33 -5 40 -12z"/>
<path d="M440 86 c0 -70 3 -86 15 -86 12 0 15 15 15 75 0 41 0 78 1 83 0 4 -7
8 -15 10 -14 3 -16 -10 -16 -82z"/>
<path d="M640 83 c0 -66 3 -83 14 -83 9 0 16 12 18 33 3 28 6 32 33 32 20 0
31 6 33 18 3 14 -4 17 -32 17 -25 0 -36 4 -36 15 0 11 11 15 40 15 31 0 40 4
40 18 0 14 -9 17 -55 17 l-55 0 0 -82z"/>
<path d="M900 83 c0 -66 3 -83 14 -83 9 0 16 12 18 33 3 27 6 32 27 29 23 -4
44 15 35 30 -3 4 -18 8 -35 8 -19 0 -29 5 -29 15 0 11 11 15 41 15 32 0 40 3
37 16 -2 12 -16 16 -55 18 l-53 1 0 -82z"/>
<path d="M1160 83 c0 -49 4 -83 10 -83 6 0 10 4 10 10 0 5 6 8 13 6 48 -15 67
-16 67 -1 0 11 -10 15 -35 15 -29 0 -35 4 -35 21 0 18 5 21 30 17 24 -4 30 -1
30 14 0 13 -8 18 -30 18 -20 0 -30 5 -30 15 0 10 11 15 35 15 27 0 35 4 35 18
0 14 -9 17 -50 17 l-50 0 0 -82z"/>
<path d="M1420 84 c0 -68 3 -84 15 -84 10 0 15 11 15 35 0 43 9 44 35 5 19
-28 51 -48 61 -37 2 2 -6 16 -18 32 -17 22 -19 31 -10 46 29 46 7 79 -57 83
l-41 3 0 -83z m80 31 c0 -9 -9 -15 -25 -15 -16 0 -25 6 -25 15 0 9 9 15 25 15
16 0 25 -6 25 -15z"/>
<path d="M1690 83 c0 -49 4 -83 10 -83 6 0 10 4 10 10 0 5 6 8 13 6 45 -14 77
-15 77 -1 0 9 -13 15 -37 17 -27 2 -39 8 -41 21 -3 13 3 17 27 17 21 0 31 5
31 15 0 10 -10 15 -30 15 -20 0 -30 5 -30 15 0 11 11 15 40 15 31 0 40 4 40
18 0 14 -9 17 -55 17 l-55 0 0 -82z"/>
<path d="M1950 85 c0 -76 2 -85 18 -85 16 0 18 7 14 50 -2 28 0 50 4 50 5 0
24 -23 43 -50 50 -74 61 -67 61 35 0 68 -3 85 -14 85 -11 0 -16 -14 -18 -51
l-3 -50 -38 50 c-55 75 -67 69 -67 -34z"/>
<path d="M2240 148 c0 -12 8 -18 25 -18 24 0 25 -2 25 -65 0 -51 3 -65 15 -65
12 0 15 14 15 65 0 63 1 65 25 65 17 0 25 6 25 18 0 14 -10 17 -65 17 -55 0
-65 -3 -65 -17z"/>
<path d="M2510 86 c0 -77 8 -103 25 -77 3 6 18 6 38 0 40 -11 37 -12 37 5 0 9
-12 16 -32 18 l-32 3 -1 65 c0 53 -3 65 -17 68 -16 3 -18 -6 -18 -82z"/>
<path d="M2745 124 c26 -35 35 -57 35 -85 0 -28 4 -39 15 -39 11 0 15 11 15
36 0 26 10 50 36 85 28 38 32 49 19 49 -9 0 -28 -13 -43 -29 l-25 -30 -28 30
c-15 16 -34 29 -43 29 -13 0 -8 -11 19 -46z"/>
</g>
</svg>
